<svg width="24" height="24" viewBox="0 0 24 24" fill="none" xmlns="http://www.w3.org/2000/svg">
<path d="M20.95 14.55L14.56 20.94C13.16 22.34 10.86 22.34 9.45002 20.94L3.06001 14.55C1.66001 13.15 1.66001 10.85 3.06001 9.44001L9.45002 3.05C10.85 1.65 13.15 1.65 14.56 3.05L20.95 9.44001C22.35 10.85 22.35 13.15 20.95 14.55Z" stroke="#0F0A14" stroke-width="1.5" stroke-linecap="round" stroke-linejoin="round"/>
<path d="M5.5 17H7.58579C7.851 17 8.10536 16.8946 8.29289 16.7071L11.2929 13.7071C11.6834 13.3166 12.3166 13.3166 12.7071 13.7071L15.7071 16.7071C15.8946 16.8946 16.149 17 16.4142 17H18.5" stroke="#0F0A14" stroke-width="1.5" stroke-linecap="round" stroke-linejoin="round"/>
<path d="M18.5 7H16.4142C16.149 7 15.8946 7.10536 15.7071 7.29289L12.7071 10.2929C12.3166 10.6834 11.6834 10.6834 11.2929 10.2929L8.29289 7.29289C8.10536 7.10536 7.851 7 7.58579 7H5.5" stroke="#0F0A14" stroke-width="1.5" stroke-linecap="round" stroke-linejoin="round"/>
</svg>
